<svg width="150" height="150" viewBox="0 0 150 150" fill="none" xmlns="http://www.w3.org/2000/svg">
<g filter="url(#filter0_d_406_3646)">
<path d="M24.1412 75.6721C23.8703 75.6721 23.5317 75.603 23.2609 75.3957C22.7191 74.9811 22.4483 74.2902 22.6514 73.5992L34.8055 40.5548C34.9409 40.2784 35.0763 40.002 35.3472 39.7947L60.199 22.1056C60.8761 21.6219 61.8241 21.7601 62.2981 22.5202C62.7722 23.2112 62.6367 24.1786 61.8918 24.6623L37.4464 42.0749L27.3238 69.246L43.8117 55.8945C43.8794 55.8254 44.0149 55.7563 44.0826 55.6872L61.2147 46.4281C61.3501 46.359 61.5533 46.2899 61.6887 46.2899L72.0492 44.8388C72.8618 44.7006 73.6744 45.3225 73.7421 46.1517C73.8776 46.9809 73.2681 47.81 72.4555 47.8791L62.569 49.2611L45.8432 58.3129L25.1569 75.2575C24.8861 75.5339 24.5475 75.6721 24.1412 75.6721Z" fill="url(#paint0_linear_406_3646)"/>
</g>
<g filter="url(#filter1_d_406_3646)">
<path d="M47.7662 121C47.6294 121 47.4926 121 47.3558 120.932C46.6717 120.728 46.1929 120.117 46.1929 119.437L46.4665 73.0344L44.2092 55.302L35.3169 43.4805C34.9065 42.937 34.9065 42.2575 35.2485 41.714C35.5906 41.1705 36.2746 40.8987 36.8902 41.0346L62.3359 47.0813C62.4727 47.1492 62.6779 47.2172 62.8147 47.2851L73.2802 53.9432C73.9643 54.4188 74.2379 55.37 73.7591 56.0494C73.2802 56.7288 72.3226 57.0005 71.6386 56.5249L61.3782 50.0027L40.3103 44.9751L46.8769 53.7394C47.0138 53.9432 47.1506 54.215 47.1506 54.4867L49.4762 72.6947C49.4762 72.7626 49.4762 72.8305 49.4762 72.8985L49.2026 113.527L59.5314 95.3866C59.5998 95.2507 59.6682 95.1828 59.805 95.0469L71.023 83.9048C71.6386 83.2933 72.5962 83.2933 73.2118 83.9048C73.8275 84.5162 73.8275 85.4674 73.2118 86.0788L62.1307 97.0851L48.9974 120.185C48.7922 120.728 48.3134 121 47.7662 121Z" fill="url(#paint1_linear_406_3646)"/>
</g>
<g filter="url(#filter2_d_406_3646)">
<path d="M72.4556 110.827C72.0493 110.827 71.643 110.689 71.3721 110.344L60.1313 98.3205L24.0387 75.7946C23.4293 75.4491 23.1584 74.689 23.3616 74.0671C23.5647 73.3762 24.1741 72.9616 24.8513 72.9616H47.8747L71.8462 67.0883C72.6587 66.881 73.4713 67.4338 73.6745 68.2629C73.8776 69.0921 73.3359 69.9213 72.5233 70.1286L48.3487 76.0019C48.2133 76.0019 48.1456 76.071 48.0101 76.071H30.2686L61.8919 95.833C62.0273 95.9021 62.0951 95.9712 62.2305 96.1094L73.6068 108.271C74.2162 108.892 74.1485 109.86 73.5391 110.482C73.2682 110.689 72.8619 110.827 72.4556 110.827Z" fill="url(#paint2_linear_406_3646)"/>
</g>
<g filter="url(#filter3_d_406_3646)">
<path d="M63.6526 118.981L59.6573 97.6296L46.7236 75.2419C46.4527 74.7582 46.4527 74.2054 46.7236 73.7217L60.8085 48.0173L66.4289 24.1785L69.4084 24.9386L63.788 48.9847C63.788 49.1229 63.7203 49.2611 63.6526 49.3992L49.9062 74.5509L62.5691 96.3858C62.6368 96.524 62.7045 96.7313 62.7723 96.8695L66.8352 118.497L63.6526 118.981Z" fill="url(#paint3_linear_406_3646)"/>
</g>
<g filter="url(#filter4_d_406_3646)">
<path d="M48.3042 122.39C48.3042 123.15 46.9677 121.838 46.9 121.008C46.7645 120.179 47.283 119.257 48.1633 119.188L72.2702 116.079C73.0828 115.941 73.8954 116.562 73.9631 117.461C74.0985 118.29 73.4891 119.119 72.6088 119.188L48.5252 122.39C48.5252 122.39 48.3042 121.764 48.3042 122.39Z" fill="url(#paint4_linear_406_3646)"/>
</g>
<g filter="url(#filter5_d_406_3646)">
<path d="M34.2319 102.386C33.9723 102.386 33.7127 102.318 33.518 102.182C32.804 101.774 32.5444 100.822 32.9338 100.073L46.434 74.7675C46.8234 74.0192 47.732 73.7471 48.446 74.1553C49.1599 74.5634 49.4196 75.5158 49.0301 76.2641L35.53 101.57C35.2704 102.114 34.7511 102.386 34.2319 102.386Z" fill="url(#paint5_linear_406_3646)"/>
</g>
<g filter="url(#filter6_d_406_3646)">
<path d="M66.632 129H54.5108C54.1045 129 53.6982 128.862 53.4274 128.516L30.2685 104.885C29.7268 104.332 29.6591 103.503 30.1331 102.881L32.0968 100.186L24.5804 95.9021C24.2418 95.6948 23.9709 95.4184 23.9032 95.0039L18.8922 79.595C18.7568 79.1114 18.8245 78.5586 19.1631 78.144L22.3458 74.0672L19.2985 70.9578C18.8922 70.5432 18.7568 69.9213 18.96 69.3686L28.0339 42.6277C28.237 42.0749 28.711 41.6603 29.2528 41.5912L35.0086 40.762V32.8849C35.0086 32.263 35.3472 31.7793 35.8212 31.5029L53.9691 22.2438C54.1722 22.1747 54.3077 22.1056 54.5108 22.1056L66.632 21.0691C67.106 21 67.5123 21.2073 67.8508 21.5528L73.8776 27.7025C74.1484 27.9789 74.3516 28.3935 74.3516 28.8081V118.29C74.3516 118.566 74.2839 118.912 74.0807 119.188L68.054 128.447C67.6477 128.724 67.1737 129 66.632 129ZM55.188 125.891H65.8194L71.1689 117.737V29.3609L66.0902 24.1786L54.9848 25.1459L37.9204 33.8523V42.144C37.9204 42.9041 37.3787 43.5951 36.6338 43.6642L30.4717 44.5624L22.0072 69.5068L25.393 72.9617C25.9347 73.5144 26.0024 74.4127 25.5284 75.0346L22.0072 79.5259L26.6119 93.5528L35.1441 98.3897C35.5504 98.597 35.8212 99.0115 35.8889 99.4261C35.9567 99.8407 35.8889 100.324 35.6181 100.67L33.3834 103.71L55.188 125.891Z" fill="url(#paint6_linear_406_3646)"/>
</g>
<g filter="url(#filter7_d_406_3646)">
<path d="M125.409 76.071C125.071 76.071 124.732 75.9328 124.394 75.7255L104.35 58.3819L87.6239 49.261L77.5342 47.8099C76.7216 47.6717 76.1122 46.9117 76.2476 46.0825C76.3831 45.2533 77.1279 44.6314 77.9405 44.7696L88.3011 46.2207C88.5042 46.2207 88.6396 46.2898 88.7751 46.3589L105.907 55.618C105.975 55.6871 106.11 55.7562 106.178 55.8253L122.024 69.5758L112.543 42.0057L88.0979 24.5931C87.4208 24.1094 87.2176 23.142 87.6916 22.451C88.1656 21.76 89.1136 21.5528 89.7908 22.0364L114.643 39.7255C114.913 39.9328 115.117 40.2092 115.184 40.4856L126.696 73.9289C126.899 74.6199 126.696 75.3109 126.087 75.7255C126.019 75.9328 125.68 76.071 125.409 76.071Z" fill="url(#paint7_linear_406_3646)"/>
</g>
<g filter="url(#filter8_d_406_3646)">
<path d="M102.376 121C101.829 121 101.282 120.728 101.009 120.252L87.8809 97.1328L76.8045 86.1171C76.1891 85.5052 76.1891 84.5532 76.8045 83.9412C77.4198 83.3292 78.377 83.3292 78.9924 83.9412L90.2056 95.0929C90.274 95.1609 90.4107 95.2968 90.4791 95.4328L100.803 113.588L100.53 72.9256C100.53 72.8576 100.53 72.7896 100.53 72.7216L102.855 54.4982C102.855 54.2262 102.991 53.9542 103.128 53.7502L109.692 44.9785L88.633 50.0104L78.377 56.5381C77.6933 57.0141 76.7361 56.8101 76.2575 56.0621C75.7789 55.3822 75.984 54.4302 76.7361 53.9542L87.1972 47.2904C87.3339 47.2224 87.4707 47.1544 87.6758 47.0865L113.111 41.0347C113.726 40.8987 114.41 41.1707 114.752 41.7146C115.093 42.2586 115.093 42.9386 114.683 43.4826L105.795 55.3142L103.538 73.0616L103.812 119.504C103.812 120.184 103.333 120.796 102.65 121C102.65 121 102.513 121 102.376 121Z" fill="url(#paint8_linear_406_3646)"/>
</g>
<g filter="url(#filter9_d_406_3646)">
<path d="M77.7373 110.827C77.331 110.827 76.9924 110.689 76.6539 110.413C76.0444 109.791 76.0444 108.823 76.5862 108.201L87.9624 96.0402C88.0302 95.9711 88.1656 95.8329 88.301 95.7638L119.924 76.0018H102.183C102.047 76.0018 101.912 76.0018 101.844 75.9327L77.6696 70.0594C76.857 69.8521 76.3153 69.023 76.5185 68.1938C76.7216 67.3646 77.5342 66.8118 78.3468 67.0191L102.318 72.8924H125.342C126.019 72.8924 126.628 73.3761 126.831 73.998C127.035 74.689 126.764 75.38 126.154 75.7255L90.0616 98.3205L78.8208 110.343C78.5499 110.62 78.1436 110.827 77.7373 110.827Z" fill="url(#paint9_linear_406_3646)"/>
</g>
<g filter="url(#filter10_d_406_3646)">
<path d="M86.6081 118.981L83.6286 118.428L87.6916 96.8003C87.6916 96.593 87.7593 96.4548 87.8947 96.3167L100.558 74.4817L86.8113 49.3301C86.7436 49.1919 86.6759 49.0537 86.6759 48.9155L81.0554 24.8694L84.0349 24.1094L89.6553 47.9481L103.74 73.6525C104.011 74.1362 104.011 74.7581 103.74 75.1727L90.7388 97.5604L86.6081 118.981Z" fill="url(#paint10_linear_406_3646)"/>
</g>
<g filter="url(#filter11_d_406_3646)">
<path d="M102.251 122.297C102.183 122.297 102.115 122.297 102.047 122.297L77.8728 119.188C77.0602 119.05 76.4508 118.29 76.5185 117.461C76.5862 116.631 77.3988 116.01 78.2114 116.079L102.386 119.188C103.199 119.326 103.808 120.086 103.74 120.916C103.673 121.745 102.995 122.297 102.251 122.297Z" fill="url(#paint11_linear_406_3646)"/>
</g>
<g filter="url(#filter12_d_406_3646)">
<path d="M116.335 101.775C115.794 101.775 115.252 101.499 114.981 100.946L100.896 75.2418C100.49 74.4818 100.761 73.5144 101.506 73.0998C102.25 72.6852 103.199 72.9616 103.605 73.7217L117.69 99.4261C118.096 100.186 117.825 101.154 117.08 101.568C116.877 101.706 116.606 101.775 116.335 101.775Z" fill="url(#paint12_linear_406_3646)"/>
</g>
<g filter="url(#filter13_d_406_3646)">
<path d="M95.6821 129H83.5609C83.0192 129 82.5452 128.724 82.2743 128.309L76.2476 119.05C76.1122 118.773 75.9767 118.497 75.9767 118.152V28.739C75.9767 28.3244 76.1122 27.9098 76.4508 27.6334L82.4775 21.4837C82.8161 21.1382 83.2224 21 83.6964 21L95.8175 22.0365C96.0207 22.0365 96.2238 22.1056 96.3592 22.1747L114.507 31.4338C115.049 31.7102 115.32 32.2629 115.32 32.8157V40.6929L121.076 41.5221C121.617 41.5912 122.091 42.0058 122.294 42.5585L131.368 69.2994C131.572 69.8522 131.436 70.4741 131.03 70.8887L127.983 73.9981L131.165 78.0748C131.504 78.4894 131.572 79.0422 131.436 79.5259L126.425 94.9347C126.29 95.2802 126.019 95.6257 125.748 95.833L118.231 100.117L120.195 102.812C120.669 103.434 120.602 104.332 120.06 104.816L96.901 128.447C96.4947 128.862 96.0884 129 95.6821 129ZM84.3735 125.891H95.0726L116.877 103.641L114.643 100.601C114.372 100.255 114.304 99.7716 114.372 99.357C114.439 98.9424 114.71 98.5278 115.117 98.3205L123.649 93.4837L128.253 79.4568L124.732 74.9654C124.258 74.3435 124.326 73.4453 124.868 72.8925L128.253 69.4376L119.789 44.4933L113.627 43.595C112.882 43.4568 112.34 42.8349 112.34 42.0749V33.7831L95.2758 25.0768L84.1704 24.1094L79.0917 29.2917V117.668L84.3735 125.891Z" fill="url(#paint13_linear_406_3646)"/>
</g>
<defs>
<filter id="filter0_d_406_3646" x="20.584" y="20.8235" width="55.177" height="57.8486" filterUnits="userSpaceOnUse" color-interpolation-filters="sRGB">
<feFlood flood-opacity="0" result="BackgroundImageFix"/>
<feColorMatrix in="SourceAlpha" type="matrix" values="0 0 0 0 0 0 0 0 0 0 0 0 0 0 0 0 0 0 127 0" result="hardAlpha"/>
<feOffset dy="1"/>
<feGaussianBlur stdDeviation="1"/>
<feComposite in2="hardAlpha" operator="out"/>
<feColorMatrix type="matrix" values="0 0 0 0 0 0 0 0 0 0 0 0 0 0 0 0 0 0 0.2 0"/>
<feBlend mode="normal" in2="BackgroundImageFix" result="effect1_dropShadow_406_3646"/>
<feBlend mode="normal" in="SourceGraphic" in2="effect1_dropShadow_406_3646" result="shape"/>
</filter>
<filter id="filter1_d_406_3646" x="33" y="40" width="43" height="84" filterUnits="userSpaceOnUse" color-interpolation-filters="sRGB">
<feFlood flood-opacity="0" result="BackgroundImageFix"/>
<feColorMatrix in="SourceAlpha" type="matrix" values="0 0 0 0 0 0 0 0 0 0 0 0 0 0 0 0 0 0 127 0" result="hardAlpha"/>
<feOffset dy="1"/>
<feGaussianBlur stdDeviation="1"/>
<feComposite in2="hardAlpha" operator="out"/>
<feColorMatrix type="matrix" values="0 0 0 0 0 0 0 0 0 0 0 0 0 0 0 0 0 0 0.2 0"/>
<feBlend mode="normal" in2="BackgroundImageFix" result="effect1_dropShadow_406_3646"/>
<feBlend mode="normal" in="SourceGraphic" in2="effect1_dropShadow_406_3646" result="shape"/>
</filter>
<filter id="filter2_d_406_3646" x="21.2949" y="66.0446" width="54.7365" height="47.7827" filterUnits="userSpaceOnUse" color-interpolation-filters="sRGB">
<feFlood flood-opacity="0" result="BackgroundImageFix"/>
<feColorMatrix in="SourceAlpha" type="matrix" values="0 0 0 0 0 0 0 0 0 0 0 0 0 0 0 0 0 0 127 0" result="hardAlpha"/>
<feOffset dy="1"/>
<feGaussianBlur stdDeviation="1"/>
<feComposite in2="hardAlpha" operator="out"/>
<feColorMatrix type="matrix" values="0 0 0 0 0 0 0 0 0 0 0 0 0 0 0 0 0 0 0.2 0"/>
<feBlend mode="normal" in2="BackgroundImageFix" result="effect1_dropShadow_406_3646"/>
<feBlend mode="normal" in="SourceGraphic" in2="effect1_dropShadow_406_3646" result="shape"/>
</filter>
<filter id="filter3_d_406_3646" x="44.5204" y="23.1785" width="26.888" height="98.8022" filterUnits="userSpaceOnUse" color-interpolation-filters="sRGB">
<feFlood flood-opacity="0" result="BackgroundImageFix"/>
<feColorMatrix in="SourceAlpha" type="matrix" values="0 0 0 0 0 0 0 0 0 0 0 0 0 0 0 0 0 0 127 0" result="hardAlpha"/>
<feOffset dy="1"/>
<feGaussianBlur stdDeviation="1"/>
<feComposite in2="hardAlpha" operator="out"/>
<feColorMatrix type="matrix" values="0 0 0 0 0 0 0 0 0 0 0 0 0 0 0 0 0 0 0.2 0"/>
<feBlend mode="normal" in2="BackgroundImageFix" result="effect1_dropShadow_406_3646"/>
<feBlend mode="normal" in="SourceGraphic" in2="effect1_dropShadow_406_3646" result="shape"/>
</filter>
<filter id="filter4_d_406_3646" x="44.8786" y="115.06" width="31.1033" height="10.5591" filterUnits="userSpaceOnUse" color-interpolation-filters="sRGB">
<feFlood flood-opacity="0" result="BackgroundImageFix"/>
<feColorMatrix in="SourceAlpha" type="matrix" values="0 0 0 0 0 0 0 0 0 0 0 0 0 0 0 0 0 0 127 0" result="hardAlpha"/>
<feOffset dy="1"/>
<feGaussianBlur stdDeviation="1"/>
<feComposite in2="hardAlpha" operator="out"/>
<feColorMatrix type="matrix" values="0 0 0 0 0 0 0 0 0 0 0 0 0 0 0 0 0 0 0.2 0"/>
<feBlend mode="normal" in2="BackgroundImageFix" result="effect1_dropShadow_406_3646"/>
<feBlend mode="normal" in="SourceGraphic" in2="effect1_dropShadow_406_3646" result="shape"/>
</filter>
<filter id="filter5_d_406_3646" x="30.7529" y="72.9657" width="20.4581" height="32.4206" filterUnits="userSpaceOnUse" color-interpolation-filters="sRGB">
<feFlood flood-opacity="0" result="BackgroundImageFix"/>
<feColorMatrix in="SourceAlpha" type="matrix" values="0 0 0 0 0 0 0 0 0 0 0 0 0 0 0 0 0 0 127 0" result="hardAlpha"/>
<feOffset dy="1"/>
<feGaussianBlur stdDeviation="1"/>
<feComposite in2="hardAlpha" operator="out"/>
<feColorMatrix type="matrix" values="0 0 0 0 0 0 0 0 0 0 0 0 0 0 0 0 0 0 0.2 0"/>
<feBlend mode="normal" in2="BackgroundImageFix" result="effect1_dropShadow_406_3646"/>
<feBlend mode="normal" in="SourceGraphic" in2="effect1_dropShadow_406_3646" result="shape"/>
</filter>
<filter id="filter6_d_406_3646" x="16.8268" y="20.0559" width="59.5247" height="111.944" filterUnits="userSpaceOnUse" color-interpolation-filters="sRGB">
<feFlood flood-opacity="0" result="BackgroundImageFix"/>
<feColorMatrix in="SourceAlpha" type="matrix" values="0 0 0 0 0 0 0 0 0 0 0 0 0 0 0 0 0 0 127 0" result="hardAlpha"/>
<feOffset dy="1"/>
<feGaussianBlur stdDeviation="1"/>
<feComposite in2="hardAlpha" operator="out"/>
<feColorMatrix type="matrix" values="0 0 0 0 0 0 0 0 0 0 0 0 0 0 0 0 0 0 0.2 0"/>
<feBlend mode="normal" in2="BackgroundImageFix" result="effect1_dropShadow_406_3646"/>
<feBlend mode="normal" in="SourceGraphic" in2="effect1_dropShadow_406_3646" result="shape"/>
</filter>
<filter id="filter7_d_406_3646" x="74.2287" y="20.7728" width="54.5434" height="58.2982" filterUnits="userSpaceOnUse" color-interpolation-filters="sRGB">
<feFlood flood-opacity="0" result="BackgroundImageFix"/>
<feColorMatrix in="SourceAlpha" type="matrix" values="0 0 0 0 0 0 0 0 0 0 0 0 0 0 0 0 0 0 127 0" result="hardAlpha"/>
<feOffset dy="1"/>
<feGaussianBlur stdDeviation="1"/>
<feComposite in2="hardAlpha" operator="out"/>
<feColorMatrix type="matrix" values="0 0 0 0 0 0 0 0 0 0 0 0 0 0 0 0 0 0 0.2 0"/>
<feBlend mode="normal" in2="BackgroundImageFix" result="effect1_dropShadow_406_3646"/>
<feBlend mode="normal" in="SourceGraphic" in2="effect1_dropShadow_406_3646" result="shape"/>
</filter>
<filter id="filter8_d_406_3646" x="74" y="40" width="43" height="84" filterUnits="userSpaceOnUse" color-interpolation-filters="sRGB">
<feFlood flood-opacity="0" result="BackgroundImageFix"/>
<feColorMatrix in="SourceAlpha" type="matrix" values="0 0 0 0 0 0 0 0 0 0 0 0 0 0 0 0 0 0 127 0" result="hardAlpha"/>
<feOffset dy="1"/>
<feGaussianBlur stdDeviation="1"/>
<feComposite in2="hardAlpha" operator="out"/>
<feColorMatrix type="matrix" values="0 0 0 0 0 0 0 0 0 0 0 0 0 0 0 0 0 0 0.2 0"/>
<feBlend mode="normal" in2="BackgroundImageFix" result="effect1_dropShadow_406_3646"/>
<feBlend mode="normal" in="SourceGraphic" in2="effect1_dropShadow_406_3646" result="shape"/>
</filter>
<filter id="filter9_d_406_3646" x="74.188" y="65.9754" width="54.7101" height="47.8517" filterUnits="userSpaceOnUse" color-interpolation-filters="sRGB">
<feFlood flood-opacity="0" result="BackgroundImageFix"/>
<feColorMatrix in="SourceAlpha" type="matrix" values="0 0 0 0 0 0 0 0 0 0 0 0 0 0 0 0 0 0 127 0" result="hardAlpha"/>
<feOffset dy="1"/>
<feGaussianBlur stdDeviation="1"/>
<feComposite in2="hardAlpha" operator="out"/>
<feColorMatrix type="matrix" values="0 0 0 0 0 0 0 0 0 0 0 0 0 0 0 0 0 0 0.2 0"/>
<feBlend mode="normal" in2="BackgroundImageFix" result="effect1_dropShadow_406_3646"/>
<feBlend mode="normal" in="SourceGraphic" in2="effect1_dropShadow_406_3646" result="shape"/>
</filter>
<filter id="filter10_d_406_3646" x="79.0554" y="23.1094" width="26.888" height="98.8713" filterUnits="userSpaceOnUse" color-interpolation-filters="sRGB">
<feFlood flood-opacity="0" result="BackgroundImageFix"/>
<feColorMatrix in="SourceAlpha" type="matrix" values="0 0 0 0 0 0 0 0 0 0 0 0 0 0 0 0 0 0 127 0" result="hardAlpha"/>
<feOffset dy="1"/>
<feGaussianBlur stdDeviation="1"/>
<feComposite in2="hardAlpha" operator="out"/>
<feColorMatrix type="matrix" values="0 0 0 0 0 0 0 0 0 0 0 0 0 0 0 0 0 0 0.2 0"/>
<feBlend mode="normal" in2="BackgroundImageFix" result="effect1_dropShadow_406_3646"/>
<feBlend mode="normal" in="SourceGraphic" in2="effect1_dropShadow_406_3646" result="shape"/>
</filter>
<filter id="filter11_d_406_3646" x="74.5133" y="115.073" width="31.2321" height="10.2241" filterUnits="userSpaceOnUse" color-interpolation-filters="sRGB">
<feFlood flood-opacity="0" result="BackgroundImageFix"/>
<feColorMatrix in="SourceAlpha" type="matrix" values="0 0 0 0 0 0 0 0 0 0 0 0 0 0 0 0 0 0 127 0" result="hardAlpha"/>
<feOffset dy="1"/>
<feGaussianBlur stdDeviation="1"/>
<feComposite in2="hardAlpha" operator="out"/>
<feColorMatrix type="matrix" values="0 0 0 0 0 0 0 0 0 0 0 0 0 0 0 0 0 0 0.2 0"/>
<feBlend mode="normal" in2="BackgroundImageFix" result="effect1_dropShadow_406_3646"/>
<feBlend mode="normal" in="SourceGraphic" in2="effect1_dropShadow_406_3646" result="shape"/>
</filter>
<filter id="filter12_d_406_3646" x="98.7075" y="71.9072" width="21.171" height="32.8682" filterUnits="userSpaceOnUse" color-interpolation-filters="sRGB">
<feFlood flood-opacity="0" result="BackgroundImageFix"/>
<feColorMatrix in="SourceAlpha" type="matrix" values="0 0 0 0 0 0 0 0 0 0 0 0 0 0 0 0 0 0 127 0" result="hardAlpha"/>
<feOffset dy="1"/>
<feGaussianBlur stdDeviation="1"/>
<feComposite in2="hardAlpha" operator="out"/>
<feColorMatrix type="matrix" values="0 0 0 0 0 0 0 0 0 0 0 0 0 0 0 0 0 0 0.2 0"/>
<feBlend mode="normal" in2="BackgroundImageFix" result="effect1_dropShadow_406_3646"/>
<feBlend mode="normal" in="SourceGraphic" in2="effect1_dropShadow_406_3646" result="shape"/>
</filter>
<filter id="filter13_d_406_3646" x="73.9767" y="20" width="59.5247" height="112" filterUnits="userSpaceOnUse" color-interpolation-filters="sRGB">
<feFlood flood-opacity="0" result="BackgroundImageFix"/>
<feColorMatrix in="SourceAlpha" type="matrix" values="0 0 0 0 0 0 0 0 0 0 0 0 0 0 0 0 0 0 127 0" result="hardAlpha"/>
<feOffset dy="1"/>
<feGaussianBlur stdDeviation="1"/>
<feComposite in2="hardAlpha" operator="out"/>
<feColorMatrix type="matrix" values="0 0 0 0 0 0 0 0 0 0 0 0 0 0 0 0 0 0 0.2 0"/>
<feBlend mode="normal" in2="BackgroundImageFix" result="effect1_dropShadow_406_3646"/>
<feBlend mode="normal" in="SourceGraphic" in2="effect1_dropShadow_406_3646" result="shape"/>
</filter>
<linearGradient id="paint0_linear_406_3646" x1="34.7178" y1="40.4505" x2="57.9998" y2="63.2668" gradientUnits="userSpaceOnUse">
<stop stop-color="#C589FD"/>
<stop offset="1" stop-color="#15E8E2"/>
</linearGradient>
<linearGradient id="paint1_linear_406_3646" x1="24.6827" y1="52.2555" x2="70.8389" y2="98.7258" gradientUnits="userSpaceOnUse">
<stop stop-color="#C589FD"/>
<stop offset="1" stop-color="#15E8E2"/>
</linearGradient>
<linearGradient id="paint2_linear_406_3646" x1="37.0074" y1="59.8325" x2="80.908" y2="102.855" gradientUnits="userSpaceOnUse">
<stop stop-color="#C589FD"/>
<stop offset="1" stop-color="#15E8E2"/>
</linearGradient>
<linearGradient id="paint3_linear_406_3646" x1="46.4598" y1="71.5882" x2="69.2925" y2="71.5882" gradientUnits="userSpaceOnUse">
<stop stop-color="#C589FD"/>
<stop offset="1" stop-color="#15E8E2"/>
</linearGradient>
<linearGradient id="paint4_linear_406_3646" x1="46.4596" y1="119.228" x2="73.7037" y2="119.228" gradientUnits="userSpaceOnUse">
<stop stop-color="#C589FD"/>
<stop offset="1" stop-color="#15E8E2"/>
</linearGradient>
<linearGradient id="paint5_linear_406_3646" x1="37.3199" y1="84.3102" x2="45.05" y2="91.6855" gradientUnits="userSpaceOnUse">
<stop stop-color="#C589FD"/>
<stop offset="1" stop-color="#15E8E2"/>
</linearGradient>
<linearGradient id="paint6_linear_406_3646" x1="26.748" y1="40.4746" x2="91.6771" y2="104.105" gradientUnits="userSpaceOnUse">
<stop stop-color="#C589FD"/>
<stop offset="1" stop-color="#15E8E2"/>
</linearGradient>
<linearGradient id="paint7_linear_406_3646" x1="115.495" y1="40.4506" x2="92.2135" y2="63.2667" gradientUnits="userSpaceOnUse">
<stop stop-color="#C589FD"/>
<stop offset="1" stop-color="#15E8E2"/>
</linearGradient>
<linearGradient id="paint8_linear_406_3646" x1="125.402" y1="52.1974" x2="79.2061" y2="98.6479" gradientUnits="userSpaceOnUse">
<stop stop-color="#C589FD"/>
<stop offset="1" stop-color="#15E8E2"/>
</linearGradient>
<linearGradient id="paint9_linear_406_3646" x1="113.206" y1="59.8325" x2="69.3052" y2="102.855" gradientUnits="userSpaceOnUse">
<stop stop-color="#C589FD"/>
<stop offset="1" stop-color="#15E8E2"/>
</linearGradient>
<linearGradient id="paint10_linear_406_3646" x1="103.754" y1="71.5881" x2="80.9205" y2="71.5881" gradientUnits="userSpaceOnUse">
<stop stop-color="#C589FD"/>
<stop offset="1" stop-color="#15E8E2"/>
</linearGradient>
<linearGradient id="paint11_linear_406_3646" x1="103.754" y1="119.228" x2="76.5092" y2="119.228" gradientUnits="userSpaceOnUse">
<stop stop-color="#C589FD"/>
<stop offset="1" stop-color="#15E8E2"/>
</linearGradient>
<linearGradient id="paint12_linear_406_3646" x1="113.134" y1="83.4145" x2="105.275" y2="91.1164" gradientUnits="userSpaceOnUse">
<stop stop-color="#C589FD"/>
<stop offset="1" stop-color="#15E8E2"/>
</linearGradient>
<linearGradient id="paint13_linear_406_3646" x1="123.465" y1="40.4744" x2="58.5359" y2="104.105" gradientUnits="userSpaceOnUse">
<stop stop-color="#C589FD"/>
<stop offset="1" stop-color="#15E8E2"/>
</linearGradient>
</defs>
</svg>
